<svg xmlns="http://www.w3.org/2000/svg" width="711" height="130" fill="none" viewBox="0 0 711 130"><g clip-path="url(#a)"><path fill="#FE6D00" d="m363.26 122.19 4.68-10.37c5.02 3.66 12.5 6.21 19.64 6.21 8.16 0 11.48-2.72 11.48-6.38 0-11.14-34.6-3.49-34.6-25.59 0-10.12 8.16-18.53 25.08-18.53 7.48 0 15.13 1.79 20.66 5.27l-4.25 10.46c-5.53-3.15-11.22-4.68-16.49-4.68-8.16 0-11.31 3.06-11.31 6.8 0 10.97 34.6 3.4 34.6 25.25 0 9.95-8.25 18.45-25.25 18.45-9.44 0-18.96-2.81-24.23-6.89zM471.66 90.14c0 13.26-9.95 21.51-25.85 21.51h-11.99v16.41h-13.77V68.55h25.76c15.9 0 25.85 8.25 25.85 21.59m-13.94 0c0-6.55-4.25-10.37-12.67-10.37h-11.22v20.66h11.22c8.42 0 12.67-3.83 12.67-10.29M477.28 98.3c0-17.68 13.77-30.78 32.56-30.78S542.4 80.53 542.4 98.3s-13.86 30.78-32.56 30.78-32.56-13.09-32.56-30.78m51.18 0c0-11.31-7.99-19.04-18.62-19.04S491.22 87 491.22 98.3s7.99 19.04 18.62 19.04 18.62-7.74 18.62-19.04M587.72 128.06l-11.48-16.58h-12.67v16.58H549.8V68.55h25.76c15.9 0 25.85 8.25 25.85 21.59 0 8.93-4.51 15.47-12.24 18.79l13.35 19.13h-14.799999999999999m-12.93-48.29h-11.22v20.74h11.22c8.42 0 12.67-3.91 12.67-10.37s-4.25-10.37-12.67-10.37M624.19 79.77h-19.04V68.55h51.86v11.22h-19.04v48.29H624.2V79.77zM661.43 122.19l4.68-10.37c5.02 3.66 12.5 6.21 19.64 6.21 8.16 0 11.48-2.72 11.48-6.38 0-11.14-34.6-3.49-34.6-25.59 0-10.12 8.16-18.53 25.08-18.53 7.48 0 15.13 1.79 20.66 5.27l-4.25 10.46c-5.53-3.15-11.22-4.68-16.49-4.68-8.16 0-11.31 3.06-11.31 6.8 0 10.97 34.6 3.4 34.6 25.25 0 9.95-8.25 18.45-25.25 18.45-9.44 0-18.96-2.81-24.23-6.89zM154.8 19.86a3.38 3.38 0 0 1 3.31-2.68c1.26 0 2.42.71 3 1.83l-6.98-13.5A10.2 10.2 0 0 0 145.08 0h-9.26c-4.81 0-8.96 3.36-9.97 8.06l-17.83 83.49a11.32 11.32 0 0 1-11.06 8.96l-59.69.1c-3.76 0-6.8-3.04-6.8-6.79V79.16c0-.75.61-1.36 1.36-1.36h44.22c4.81 0 8.97-3.36 9.97-8.07l3.19-15c.38-1.76-.97-3.42-2.77-3.42h-54.6c-.75 0-1.36-.61-1.36-1.36V30.61c0-.75.61-1.36 1.36-1.36h54.87c4.81 0 8.97-3.36 9.97-8.07l3.78-17.75c.38-1.76-.97-3.42-2.77-3.42H12.74C5.7 0 0 5.7 0 12.74v85.77c0 16.89 13.69 30.57 30.57 30.57h76.15c14.42 0 26.88-10.08 29.9-24.18l9.6-44.9 8.58-40.15z"/><path fill="url(#b)" d="M161.12 19.01a3.39 3.39 0 0 0-3-1.83c-1.6 0-2.98 1.12-3.31 2.68l-8.58 40.15 30.33 58.62 10.48-49.56L161.13 19z"/><path fill="url(#c)" d="M204.93 103.66a3.39 3.39 0 0 0 3 1.83c1.6 0 2.98-1.12 3.31-2.68l14.28-65.43-29.22-12.16-9.27 43.85 17.89 34.58z"/><path fill="#FE6D00" d="M309.13 0h-82.71c-14.45 0-26.92 10.11-29.91 24.25l-.5 2.37 29.21 12.15.3-1.39c1.14-5.2 5.74-8.91 11.06-8.91h65.85a6.79 6.79 0 0 1 6.79 6.79v38.8c0 .75-.61 1.36-1.36 1.36h-31.52c-.65 0-1.13-.6-1-1.23l5.5-25.81c.38-1.76-.97-3.42-2.77-3.42h-19.59c-4.81 0-8.97 3.36-9.97 8.07l-15.47 72.63c-.38 1.76.97 3.42 2.77 3.42h19.59c4.81 0 8.97-3.36 9.97-8.07l4.06-19.07c.17-.78.86-1.34 1.66-1.34h36.77c.75 0 1.36.61 1.36 1.36v24.29c0 1.56 1.27 2.83 2.83 2.83h24.82c1.56 0 2.83-1.27 2.83-2.83V30.57C339.7 13.68 326.01 0 309.13 0M211.24 102.81a3.38 3.38 0 0 1-3.31 2.68c-1.26 0-2.42-.71-3-1.83l-17.89-34.58-.6-1.17-10.48 49.56.6 1.17 2.56 4.95c1.75 3.38 5.24 5.51 9.05 5.51h9.13c4.79 0 8.94-3.34 9.96-8.02l3.99-18.26z"/><path fill="url(#d)" d="M161.12 19.01a3.39 3.39 0 0 0-3-1.83c-1.6 0-2.98 1.12-3.31 2.68l-8.58 40.15 30.33 58.62 10.48-49.56L161.13 19z"/><path fill="url(#e)" d="M204.93 103.66a3.39 3.39 0 0 0 3 1.83c1.6 0 2.98-1.12 3.31-2.68l14.28-65.43-29.22-12.16-9.27 43.85 17.89 34.58z"/></g><defs><linearGradient id="b" x1="144.7" x2="171.62" y1="23.39" y2="74.05" gradientUnits="userSpaceOnUse"><stop stop-color="#FE6D00" stop-opacity="0"/><stop offset="1" stop-color="#FE6D00"/></linearGradient><linearGradient id="c" x1="195.26" x2="210.11" y1="101.19" y2="36.34" gradientUnits="userSpaceOnUse"><stop stop-color="#FE6D00" stop-opacity="0"/><stop offset="1" stop-color="#FE6D00"/></linearGradient><linearGradient id="d" x1="182.73" x2="158.45" y1="60.36" y2="71.97" gradientUnits="userSpaceOnUse"><stop stop-color="#FE6D00"/><stop offset="1" stop-color="#FE6D00" stop-opacity="0"/></linearGradient><linearGradient id="e" x1="190" x2="215.33" y1="62.74" y2="68.28" gradientUnits="userSpaceOnUse"><stop stop-color="#FE6D00" stop-opacity="0"/><stop offset="1" stop-color="#FE6D00"/></linearGradient><clipPath id="a"><path fill="#fff" d="M0 0h710.91v129.09H0z"/></clipPath></defs></svg>