<svg xmlns="http://www.w3.org/2000/svg" width="1000" height="124.121" viewBox="0 0 264.58333 32.840349"><path fill="#878787" d="M26.172 31.81 13.164 16.1 25.724.938h-7.596L6.396 15.195 6.399.933.01.932 0 31.653l6.392.001.004-14.53 12.009 14.683zM46.57 31.814c4.514.002 9.264-2.707 9.927-8.572.415-3.637-1.697-6.811-4.762-8.154 1.941-1.438 3.256-3.652 3.256-6.621.002-4.08-3.344-7.512-7.688-7.513L29.263.949l-.009 30.862zM45.123 5.86c1.851 0 3.292 1.582 3.292 3.433 0 1.844-1.428 3.427-3.295 3.427l-9.897-.003.003-6.86zm.178 12.045c2.552.001 4.443 2.02 4.443 4.367-.001 2.348-2.11 4.254-4.446 4.364l-10.079-.005.003-8.729zM59.8 31.812l.002-5.124 15.335.003c2.533 0 4.585-1.8 4.585-4.306.002-2.505-2.05-4.302-4.582-4.303l-8.182-.004c-4.724-.001-8.55-3.126-8.548-8.986C58.41 4.314 62.29.95 67.354.95l16.268.004-.002 4.9L68.98 5.85c-2.186-.002-3.963 1.13-3.963 3.345-.003 2.566 1.776 3.687 3.962 3.687l7.068.003c6.29.001 10.017 4.343 10.016 9.362-.002 5.013-3.532 9.57-10.577 9.568z"/><path fill="#FFF" d="m134.29 8.452 12.176.072.27-5.519-14.65-.003c-2.005-.002-3.693 1.26-4.922 2.692-1.229 1.447-1.643 3.25-1.643 5.567 0 2.09.963 4.35 2.22 5.704 1.26 1.358 3.054 2.233 4.723 2.233l5.595.068c2.362.001 3.277.298 3.277 2.511-.002.94-.502 1.284-1.103 1.83-.529.471-1.31.84-2.08.838l-10.813-.23-.529 5.322 15.603.071c1.764 0 3.015-1.04 4.16-2.59 1.147-1.556 1.655-3.526 1.655-5.79 0-2.213-.775-4.464-1.906-5.801-1.134-1.339-3.097-2.282-5.087-2.285l-6.56.066c-.734 0-1.087.1-1.604-.498-.514-.602-.64-.944-.64-1.827 0-.782-.067-.923.467-1.503.535-.574.864-.928 1.39-.928M182.332 30.474c3.7.002 6.776-1.862 8.633-4.307 1.707-2.249 2.388-5.677 2.39-9.704 0-4.915-.637-7.992-2.544-10.218-1.744-2.028-4.814-3.942-8.472-3.942-3.3 0-6.462 1.518-8.193 3.272-2.119 2.172-3.063 5.839-3.065 10.88 0 4.493 1.109 7.895 2.572 9.974 1.668 2.343 4.61 4.044 8.679 4.045m-3.741-19.467c.861-1.803 1.692-2.368 3.831-2.368 2.53.001 2.83.04 3.764 1.9.677 1.331.675 3.737.674 6.528-.001 2.423-.084 3.831-.925 5.335-1.013 1.805-1.39 2.018-3.378 2.017-2.025 0-2.46-.165-3.493-1.85-.92-1.508-1.487-2.86-1.487-5.404.001-2.774.34-4.747 1.014-6.158M163.234 20.843c1.858.001 4.106-.922 5.449-2.532 1.343-1.615 1.96-3.915 1.96-6.206 0-2.164-.472-4.542-1.517-6.19-1.22-1.895-3.23-3.078-5.33-3.078l-14.294.288-.3 26.86 6.009-.232.178-8.853zm-7.9-12.618 6.122.002c.9 0 .88.336 1.573 1.078.69.734 1.16 1.537 1.16 2.644 0 1.179-.206 1.46-.846 2.246-.635.783-1.068 1.19-1.983 1.256l-6.028-.176zM253.899 13.396l-6.486-.003c-.735 0-1.126.048-1.642-.55-.513-.603-.71-1.052-.71-1.937 0-.783.151-.933.685-1.515.533-.572.653-.86 1.178-.858l12.422-.113.06-5.382-13.543-.004c-2.005 0-4.268.842-5.497 2.273-1.226 1.446-1.786 3.609-1.786 5.929-.002 2.09.275 3.986 1.532 5.34 1.258 1.358 3.596 2.499 5.266 2.5l5.678-.057c2.36 0 3.137.578 3.136 2.789 0 .94-.477 1.101-1.077 1.646-.528.472-.823.707-1.593.707l-11.532.348-.177 5.384 14.569.064c1.76.001 3.74-.83 4.885-2.382 1.145-1.555 1.72-3.867 1.722-6.132 0-2.212-.687-4.52-1.823-5.858-1.132-1.338-3.278-2.19-5.267-2.19M217.073 7.929l7.572.002-.007 22.367 4.637.001.007-22.367 8.145.003.001-4.572-20.353-.005zM215.256 16.745c.922-1.252 1.32-3.015 1.32-4.81.002-2.264-.473-4.58-1.543-6.237-1.068-1.668-3.122-2.789-4.753-2.789l-15.451.288-.066 26.685 5.663.06.237-9.81 4.835-.114 4.877 9.752 6.846-.116-5.514-10.49c1.41-.32 2.631-1.163 3.549-2.419m-6.288-2.911c-.692.518-.952.658-1.831.657l-6.472.174-.175-6.282 6.446.119c1.164 0 1.385.092 2.07.743.685.648 1.141 1.29 1.141 2.488 0 1.154-.312 1.459-1.179 2.1"/><path fill="#1468B0" d="M163.87 14.663c.64-.786.962-1.768.962-2.949 0-1.106-.352-2.026-1.042-2.76-.694-.741-1.493-1.37-2.393-1.37l-6.59-.003-.002 8.338 6.73.002c.918 0 1.698-.474 2.334-1.258M207.053 7.858l-6.972-.002-.001 7.218 7.115.002c.88 0 1.666-.256 2.359-.774.866-.642 1.295-1.533 1.295-2.686 0-1.199-.34-2.133-1.024-2.781-.685-.65-1.607-.977-2.772-.977"/><path fill="#1468B0" d="m122.027 0-.01 32.8 142.557.04.01-32.8ZM132.4 13.046c.517.597 1.139.9 1.873.9l6.896.002c1.99.002 3.552.678 4.685 2.016 1.13 1.339 1.704 3.118 1.704 5.33-.001 2.265-.576 4.168-1.721 5.724-1.146 1.55-2.597 2.321-4.362 2.321l-13.924-.004v-4.624l11.477.004c.768 0 1.416-.234 1.943-.706.6-.545.902-1.292.902-2.232.001-2.213-1.182-3.316-3.545-3.316l-5.797-.002c-1.669 0-3.126-.673-4.385-2.032-1.259-1.353-1.887-3.076-1.887-5.166.002-2.318.616-4.188 1.845-5.633 1.23-1.434 2.85-2.157 4.855-2.157l13.306.004-.001 4.444-12.244-.004c-.526 0-1.055.287-1.591.86a2.92 2.92 0 0 0-.8 2.041c-.002.883.258 1.627.77 2.23m17.564 16.295.007-25.864 13.474.003c2.101 0 3.76.951 4.98 2.844 1.046 1.649 1.575 3.559 1.575 5.723-.002 2.292-.676 4.239-2.019 5.856-1.343 1.609-2.947 2.415-4.805 2.415l-8.372-.003v9.03zm21.82-12.887c.001-5.041 1.064-8.649 3.183-10.82 1.73-1.754 4.073-2.63 7.374-2.628 3.658.001 5.85 1.211 7.592 3.24 1.909 2.225 2.955 5.594 2.954 10.51-.001 4.026-.857 7.164-2.565 9.411-1.858 2.443-4.29 3.663-7.989 3.663-4.07 0-6.368-1.35-8.037-3.694-1.461-2.078-2.513-5.19-2.512-9.682m44.794 12.907-5.559-.003-5.11-10.1-5.83-.003-.003 10.1h-4.67l.008-25.866 14.925.004c1.632.002 2.984.83 4.05 2.497 1.07 1.66 1.604 3.623 1.603 5.886 0 1.796-.458 3.324-1.378 4.576-.92 1.256-2.082 2.04-3.49 2.36zm.655-21.497.001-4.4 20.01.005-.001 4.402-8.008-.001-.006 21.534-4.559-.002.006-21.534zm41.392 19.185c-1.144 1.55-2.598 2.322-4.359 2.322l-13.925-.004.001-4.624 11.474.004c.77 0 1.417-.235 1.944-.706.6-.545.902-1.293.902-2.232 0-2.212-1.186-3.317-3.546-3.318l-5.795-.002c-1.67 0-3.13-.672-4.388-2.031-1.257-1.352-1.885-3.076-1.884-5.165 0-2.318.62-4.188 1.846-5.635 1.228-1.43 2.847-2.155 4.853-2.155l13.308.004v4.444l-12.248-.004c-.524 0-1.054.286-1.588.86a2.915 2.915 0 0 0-.802 2.04c0 .883.257 1.628.769 2.23.517.598 1.141.9 1.876.9l6.896.004c1.99 0 3.55.675 4.682 2.014 1.136 1.338 1.705 3.118 1.705 5.33-.001 2.266-.577 4.168-1.72 5.724"/><path fill="#878787" d="M111.291 31.807 96.803 11.713l-.005 20.09-6.016-.003.01-30.816 6.115.001 14.261 20.403.005-20.4 6.13.002-.01 30.818z"/><path fill="#1468B0" d="M182.334 25.205c1.987 0 3.262-.772 4.274-2.577.841-1.506 1.262-3.474 1.263-5.897 0-2.79-.336-4.86-1.012-6.192-.933-1.86-2.02-2.909-4.548-2.909-2.14-.001-3.643.903-4.505 2.704-.673 1.411-1.012 3.495-1.014 6.272 0 2.541.457 4.568 1.376 6.076 1.03 1.686 2.14 2.523 4.166 2.523"/></svg>