<svg xmlns="http://www.w3.org/2000/svg" xml:space="preserve" width="1000px" height="459.393px" x="0px" y="0px" viewBox="0 0 1000 459.393"><path fill="#2E3091" d="M-.321.177h424.49v115.669H-.321z"/><path fill="#EC1B23" d="M452.808.177h129.968v115.669H452.808z"/><path fill="#2E3091" d="M144.539 130.748h131.16v327.876h-131.16zM327.461 359.705h71.687c.015-.06 22.854-.16 22.854-.217 29.958-1.765 31.05-14.624 30.949-41.497l-.288-187.833h130.112v238.774h-.044c-.274 47.816-37.839 86.834-85.368 90.395v.242H304.206v-76.18c.001.001-.027-20.41 23.255-23.684M806.334 359.746l-64.237.031v-91.67l64.467.057c25.008 0 45.504 20.5 45.504 45.807-.001 25.279-20.654 45.775-45.734 45.775m144.511-135.952c27.431-23.6 45.058-56.959 44.786-94.023C995.127 52.298 932.053.378 853.621.378L806.378.177H612.144v115.669l194.42.073c24.689 0 44.902 20.082 44.902 44.715 0 24.647-19.982 44.6-44.7 44.6h-64.669v-75.076H612.144v329.084h194.234l49.25.283c79.554 0 144.052-60.261 144.052-134.645 0-40.32-18.764-76.437-48.835-101.086z"/></svg>