<svg xmlns="http://www.w3.org/2000/svg" width="899.92444pt" height="225pt" viewBox="0 0 899.92446 224.99999"><defs><clipPath id="a"><path d="m180.365 415.961-.01.009-.001.001-.008.009-.003.001-.007.008-.002.002-.006.008-.003.002-.005.008-.003.002-.008.01a.55.55 0 0 0-.11.341l.008.116.001.006.003.015.039.142.001.002.008.022.004.008.004.012.008.018.003.007.01.021.002.004.011.023c.178.335 1.095 2.009 1.23 2.247l.015.026.009.016.005.008c.216.398.327.767.361 1.11v.019l.002.016.001.005.007.182c0 .763-.379 1.4-.826 1.953l-.168.206-.011.013-.01.011-.015.02-.007.008a92.82 92.82 0 0 1-1.505 1.746c1.634-.366 3.202-1.212 4.037-2.196.726-.855 1.054-1.968 1.052-3.096a6.073 6.073 0 0 0-.071-.903l-.128-.029-.007-.001-.007-.002a2.456 2.456 0 0 1-.49-.183h-.003l-.022-.012-.027-.016-.007-.002-.024-.013-.006-.002a3.399 3.399 0 0 1-.285-.177l-.001-.001-.031-.022c-.661-.505-1.496-1.154-2.202-1.696a.723.723 0 0 0-.445-.163.529.529 0 0 0-.357.131"/></clipPath><clipPath id="b"><path d="M190.742 414.73c-1.023.693-3.394 2.305-4.663 3.074-.108.064-.213.12-.32.167h-.001c-.394 1.027-.618 2.122-.74 3.217-.053.461-.086.929-.086 1.394.001.363.022.725.07 1.082.271.07.533.201.791.392.111.084 1.896 1.453 2.61 2.004l.167.1a.662.662 0 0 0 .268.063h.014l.086-.006h.003l.004-.001.009-.002a.496.496 0 0 0 .246-.114l.009-.007a.52.52 0 0 0 .165-.402c0-.1-.023-.208-.07-.319v-.001l-.012-.022v-.005l-.011-.021-.002-.005-.012-.022a163.8 163.8 0 0 0-1.366-2.474c-.346-.628-.548-1.174-.553-1.675V421.066c.013-.407.159-.787.471-1.16.575-.696 3.482-3.923 3.801-4.306.168-.2.225-.4.205-.573v-.001l-.001-.008a.568.568 0 0 0-.151-.318.526.526 0 0 0-.392-.158.968.968 0 0 0-.539.188"/></clipPath><clipPath id="c"><path d="M0 751.181h1275.591V0H0Z"/></clipPath></defs><g fill="#41a9ce" clip-path="url(#c)" transform="matrix(23.6146 0 0 23.6146 -3012.263 -10426.236)"><path d="M130.733 448.782c0 .176.144.357.321.357h5.714c.174 0 .317-.18.317-.354v-7.269h3.177v7.63c0 1.028-.832 1.898-1.86 1.898h-8.983c-1.028 0-1.86-.888-1.86-1.916v-7.612h3.174ZM156.141 443.705c0-.176.144-.28.32-.28h5.714c.175 0 .317.104.317.277v7.342h3.176v-7.702c0-1.029-.832-1.825-1.862-1.825h-8.98a1.845 1.845 0 0 0-1.862 1.844v7.683h3.177Z"/></g><path fill="#41a9ce" d="M600.019.008h-90.066L449.83 64.145 389.967.008h-90.042l104.518 112.5-105.534 112.476h91.058l59.721-63.925 59.462 63.925h90.775l-104.92-112.405Z" style="stroke-width:23.6147"/></svg>